ZiroliWes-Regular1.ufo
<glyph name="numbersign" format="1">
  <advance width="555"/>
  <unicode hex="0023"/>
  <outline>
    <contour>
      <point x="277" y="25" type="curve"/>
      <point x="277" y="36" type="line"/>
      <point x="214" y="40"/>
      <point x="207" y="55"/>
      <point x="207" y="204" type="curve" smooth="yes"/>
      <point x="207" y="378" type="line" smooth="yes"/>
      <point x="207" y="529"/>
      <point x="212" y="543"/>
      <point x="268" y="550" type="curve"/>
      <point x="268" y="560" type="line"/>
      <point x="248" y="557"/>
      <point x="213" y="554"/>
      <point x="197" y="554" type="curve" smooth="yes"/>
      <point x="176" y="554"/>
      <point x="131" y="556"/>
      <point x="102" y="560" type="curve"/>
      <point x="102" y="550" type="line"/>
      <point x="159" y="543"/>
      <point x="163" y="529"/>
      <point x="163" y="378" type="curve" smooth="yes"/>
      <point x="163" y="204" type="line" smooth="yes"/>
      <point x="163" y="55"/>
      <point x="158" y="40"/>
      <point x="95" y="35" type="curve"/>
      <point x="95" y="25" type="line"/>
      <point x="131" y="28"/>
      <point x="171" y="31"/>
      <point x="197" y="31" type="curve" smooth="yes"/>
      <point x="217" y="31"/>
      <point x="250" y="27"/>
    </contour>
    <contour>
      <point x="50" y="457" type="line"/>
      <point x="52" y="419"/>
      <point x="42" y="373"/>
      <point x="12" y="319" type="curve"/>
      <point x="25" y="319" type="line"/>
      <point x="44" y="359"/>
      <point x="76" y="367"/>
      <point x="206" y="367" type="curve" smooth="yes"/>
      <point x="417" y="367" type="line" smooth="yes"/>
      <point x="507" y="367"/>
      <point x="513" y="352"/>
      <point x="513" y="316" type="curve"/>
      <point x="524" y="316" type="line"/>
      <point x="520" y="357"/>
      <point x="524" y="413"/>
      <point x="542" y="457" type="curve"/>
      <point x="532" y="457" type="line"/>
      <point x="513" y="411"/>
      <point x="490" y="407"/>
      <point x="373" y="407" type="curve" smooth="yes"/>
      <point x="170" y="407" type="line" smooth="yes"/>
      <point x="69" y="407"/>
      <point x="60" y="413"/>
      <point x="60" y="457" type="curve"/>
    </contour>
    <contour>
      <point x="482" y="25" type="curve"/>
      <point x="482" y="36" type="line"/>
      <point x="419" y="40"/>
      <point x="412" y="55"/>
      <point x="412" y="204" type="curve" smooth="yes"/>
      <point x="412" y="378" type="line" smooth="yes"/>
      <point x="412" y="529"/>
      <point x="417" y="543"/>
      <point x="473" y="550" type="curve"/>
      <point x="473" y="560" type="line"/>
      <point x="453" y="557"/>
      <point x="418" y="554"/>
      <point x="402" y="554" type="curve" smooth="yes"/>
      <point x="381" y="554"/>
      <point x="336" y="556"/>
      <point x="307" y="560" type="curve"/>
      <point x="307" y="550" type="line"/>
      <point x="364" y="543"/>
      <point x="368" y="529"/>
      <point x="368" y="378" type="curve" smooth="yes"/>
      <point x="368" y="204" type="line" smooth="yes"/>
      <point x="368" y="55"/>
      <point x="363" y="40"/>
      <point x="300" y="35" type="curve"/>
      <point x="300" y="25" type="line"/>
      <point x="336" y="28"/>
      <point x="376" y="31"/>
      <point x="402" y="31" type="curve" smooth="yes"/>
      <point x="422" y="31"/>
      <point x="455" y="27"/>
    </contour>
    <contour>
      <point x="50" y="277" type="line"/>
      <point x="52" y="239"/>
      <point x="42" y="193"/>
      <point x="12" y="139" type="curve"/>
      <point x="25" y="139" type="line"/>
      <point x="44" y="180"/>
      <point x="76" y="188"/>
      <point x="206" y="188" type="curve" smooth="yes"/>
      <point x="417" y="188" type="line" smooth="yes"/>
      <point x="507" y="188"/>
      <point x="513" y="173"/>
      <point x="513" y="136" type="curve"/>
      <point x="524" y="136" type="line"/>
      <point x="520" y="177"/>
      <point x="524" y="233"/>
      <point x="542" y="277" type="curve"/>
      <point x="532" y="277" type="line"/>
      <point x="513" y="231"/>
      <point x="490" y="227"/>
      <point x="373" y="227" type="curve" smooth="yes"/>
      <point x="170" y="227" type="line" smooth="yes"/>
      <point x="69" y="227"/>
      <point x="60" y="233"/>
      <point x="60" y="277" type="curve"/>
    </contour>
  </outline>
</glyph>
<glyph name="plus" format="1">
  <advance width="517"/>
  <unicode hex="002B"/>
  <outline>
    <contour>
      <point x="71" y="412" type="line"/>
      <point x="73" y="364"/>
      <point x="65" y="307"/>
      <point x="33" y="242" type="curve"/>
      <point x="46" y="241" type="line"/>
      <point x="66" y="288"/>
      <point x="105" y="296"/>
      <point x="257" y="296" type="curve" smooth="yes"/>
      <point x="318" y="296" type="line" smooth="yes"/>
      <point x="455" y="296"/>
      <point x="464" y="279"/>
      <point x="464" y="238" type="curve"/>
      <point x="475" y="238" type="line"/>
      <point x="471" y="289"/>
      <point x="474" y="359"/>
      <point x="493" y="412" type="curve"/>
      <point x="483" y="412" type="line"/>
      <point x="463" y="358"/>
      <point x="428" y="355"/>
      <point x="274" y="355" type="curve" smooth="yes"/>
      <point x="221" y="355" type="line" smooth="yes"/>
      <point x="92" y="355"/>
      <point x="81" y="362"/>
      <point x="81" y="412" type="curve"/>
    </contour>
    <contour>
      <point x="374" y="95" type="curve"/>
      <point x="374" y="106" type="line"/>
      <point x="313" y="110"/>
      <point x="306" y="125"/>
      <point x="306" y="274" type="curve" smooth="yes"/>
      <point x="306" y="378" type="line" smooth="yes"/>
      <point x="306" y="529"/>
      <point x="311" y="543"/>
      <point x="367" y="550" type="curve"/>
      <point x="367" y="560" type="line"/>
      <point x="340" y="556"/>
      <point x="293" y="554"/>
      <point x="272" y="554" type="curve" smooth="yes"/>
      <point x="251" y="554"/>
      <point x="206" y="556"/>
      <point x="177" y="560" type="curve"/>
      <point x="177" y="550" type="line"/>
      <point x="234" y="543"/>
      <point x="238" y="529"/>
      <point x="238" y="378" type="curve" smooth="yes"/>
      <point x="238" y="274" type="line" smooth="yes"/>
      <point x="238" y="125"/>
      <point x="233" y="110"/>
      <point x="170" y="105" type="curve"/>
      <point x="170" y="95" type="line"/>
      <point x="206" y="98"/>
      <point x="246" y="101"/>
      <point x="272" y="101" type="curve" smooth="yes"/>
      <point x="298" y="101"/>
      <point x="340" y="98"/>
    </contour>
  </outline>
</glyph>
<glyph name="seven" format="1">
  <advance width="544"/>
  <unicode hex="0037"/>
  <outline>
    <contour>
      <point x="478" y="668" type="line"/>
      <point x="225" y="668"/>
      <point x="129" y="671"/>
      <point x="93" y="678" type="curve"/>
      <point x="91" y="635"/>
      <point x="72" y="560"/>
      <point x="41" y="488" type="curve"/>
      <point x="58" y="480" type="line"/>
      <point x="89" y="589"/>
      <point x="105" y="618"/>
      <point x="279" y="618" type="curve" smooth="yes"/>
      <point x="370" y="618"/>
      <point x="454" y="611"/>
      <point x="478" y="608" type="curve"/>
    </contour>
    <contour>
      <point x="367" y="-4" type="curve"/>
      <point x="367" y="12" type="line"/>
      <point x="296" y="21"/>
      <point x="280" y="36"/>
      <point x="439" y="403" type="curve" smooth="yes"/>
      <point x="551" y="662" type="line"/>
      <point x="546" y="673" type="line"/>
      <point x="525" y="671"/>
      <point x="433" y="668"/>
      <point x="339" y="668" type="curve"/>
      <point x="339" y="646" type="line"/>
      <point x="423" y="630" type="line"/>
      <point x="387" y="497"/>
      <point x="305" y="317"/>
      <point x="274" y="249" type="curve" smooth="yes"/>
      <point x="187" y="61"/>
      <point x="169" y="25"/>
      <point x="87" y="12" type="curve"/>
      <point x="87" y="-4" type="line"/>
      <point x="125" y="0"/>
      <point x="171" y="4"/>
      <point x="220" y="4" type="curve" smooth="yes"/>
      <point x="262" y="4"/>
      <point x="331" y="0"/>
    </contour>
  </outline>
</glyph>
<glyph name="equal" format="1">
  <advance width="481"/>
  <unicode hex="003D"/>
  <outline>
    <contour>
      <point x="50" y="457" type="line"/>
      <point x="52" y="419"/>
      <point x="42" y="373"/>
      <point x="12" y="319" type="curve"/>
      <point x="25" y="319" type="line"/>
      <point x="44" y="359"/>
      <point x="76" y="367"/>
      <point x="206" y="367" type="curve" smooth="yes"/>
      <point x="307" y="367" type="line" smooth="yes"/>
      <point x="397" y="367"/>
      <point x="403" y="352"/>
      <point x="403" y="316" type="curve"/>
      <point x="414" y="316" type="line"/>
      <point x="410" y="357"/>
      <point x="414" y="413"/>
      <point x="432" y="457" type="curve"/>
      <point x="422" y="457" type="line"/>
      <point x="403" y="411"/>
      <point x="380" y="407"/>
      <point x="263" y="407" type="curve" smooth="yes"/>
      <point x="170" y="407" type="line" smooth="yes"/>
      <point x="69" y="407"/>
      <point x="60" y="413"/>
      <point x="60" y="457" type="curve"/>
    </contour>
    <contour>
      <point x="50" y="277" type="line"/>
      <point x="52" y="239"/>
      <point x="42" y="193"/>
      <point x="12" y="139" type="curve"/>
      <point x="25" y="139" type="line"/>
      <point x="44" y="180"/>
      <point x="76" y="188"/>
      <point x="206" y="188" type="curve" smooth="yes"/>
      <point x="307" y="188" type="line" smooth="yes"/>
      <point x="397" y="188"/>
      <point x="403" y="173"/>
      <point x="403" y="136" type="curve"/>
      <point x="414" y="136" type="line"/>
      <point x="410" y="177"/>
      <point x="414" y="233"/>
      <point x="432" y="277" type="curve"/>
      <point x="422" y="277" type="line"/>
      <point x="403" y="231"/>
      <point x="380" y="227"/>
      <point x="263" y="227" type="curve" smooth="yes"/>
      <point x="170" y="227" type="line" smooth="yes"/>
      <point x="69" y="227"/>
      <point x="60" y="233"/>
      <point x="60" y="277" type="curve"/>
    </contour>
  </outline>
</glyph>
<glyph name="at" format="1">
  <advance width="947"/>
  <unicode hex="0040"/>
  <outline>
    <contour>
      <point x="513" y="542" type="line"/>
      <point x="440" y="339" type="line" smooth="yes"/>
      <point x="384" y="184"/>
      <point x="374" y="161"/>
      <point x="328" y="157" type="curve"/>
      <point x="328" y="148" type="line"/>
      <point x="344" y="150"/>
      <point x="370" y="153"/>
      <point x="392" y="153" type="curve" smooth="yes"/>
      <point x="407" y="153"/>
      <point x="449" y="150"/>
      <point x="465" y="148" type="curve"/>
      <point x="465" y="157" type="line"/>
      <point x="430" y="158"/>
      <point x="427" y="167"/>
      <point x="454" y="266" type="curve" smooth="yes"/>
      <point x="465" y="304"/>
      <point x="510" y="422"/>
      <point x="526" y="471" type="curve"/>
    </contour>
    <contour>
      <point x="584" y="242" type="curve" smooth="yes"/>
      <point x="610" y="168"/>
      <point x="600" y="157"/>
      <point x="566" y="157" type="curve"/>
      <point x="566" y="148" type="line"/>
      <point x="581" y="150"/>
      <point x="622" y="153"/>
      <point x="633" y="153" type="curve" smooth="yes"/>
      <point x="648" y="153"/>
      <point x="697" y="150"/>
      <point x="718" y="148" type="curve"/>
      <point x="718" y="157" type="line"/>
      <point x="687" y="158"/>
      <point x="673" y="175"/>
      <point x="653" y="221" type="curve" smooth="yes"/>
      <point x="602" y="341"/>
      <point x="559" y="443"/>
      <point x="520" y="542" type="curve"/>
      <point x="513" y="542" type="line"/>
      <point x="498" y="445" type="line"/>
      <point x="529" y="374"/>
      <point x="555" y="320"/>
    </contour>
    <contour>
      <point x="903" y="332" type="curve" smooth="yes"/>
      <point x="903" y="512"/>
      <point x="752" y="677"/>
      <point x="517" y="676" type="curve" smooth="yes"/>
      <point x="355" y="675"/>
      <point x="226" y="573"/>
      <point x="196" y="403" type="curve"/>
      <point x="217" y="395" type="line"/>
      <point x="246" y="538"/>
      <point x="338" y="642"/>
      <point x="519" y="642" type="curve" smooth="yes"/>
      <point x="725" y="642"/>
      <point x="847" y="455"/>
      <point x="847" y="244" type="curve" smooth="yes"/>
      <point x="847" y="106"/>
      <point x="732" y="-40"/>
      <point x="529" y="-40" type="curve" smooth="yes"/>
      <point x="359" y="-40"/>
      <point x="271" y="48"/>
      <point x="271" y="162" type="curve"/>
      <point x="271" y="295"/>
      <point x="395" y="334"/>
      <point x="588" y="272" type="curve"/>
      <point x="588" y="307" type="line"/>
      <point x="391" y="364"/>
      <point x="210" y="312"/>
      <point x="210" y="141" type="curve"/>
      <point x="210" y="12"/>
      <point x="313" y="-76"/>
      <point x="484" y="-76" type="curve" smooth="yes"/>
      <point x="741" y="-76"/>
      <point x="903" y="59"/>
    </contour>
  </outline>
</glyph>
<glyph name="A" format="1">
  <advance width="676"/>
  <unicode hex="0041"/>
  <outline>
    <contour>
      <point x="319" y="694" type="line"/>
      <point x="193" y="334" type="line" smooth="yes"/>
      <point x="97" y="60"/>
      <point x="80" y="19"/>
      <point x="0" y="12" type="curve"/>
      <point x="0" y="-4" type="line"/>
      <point x="28" y="0"/>
      <point x="72" y="4"/>
      <point x="111" y="4" type="curve" smooth="yes"/>
      <point x="136" y="4"/>
      <point x="209" y="0"/>
      <point x="237" y="-4" type="curve"/>
      <point x="237" y="12" type="line"/>
      <point x="177" y="14"/>
      <point x="171" y="29"/>
      <point x="218" y="205" type="curve" smooth="yes"/>
      <point x="235.973796441" y="272.901008776"/>
      <point x="315.090307928" y="482.290992214"/>
      <point x="342" y="569" type="curve"/>
    </contour>
    <contour>
      <point x="442" y="162" type="curve" smooth="yes"/>
      <point x="488" y="31"/>
      <point x="470" y="12"/>
      <point x="411" y="12" type="curve"/>
      <point x="411" y="-4" type="line"/>
      <point x="438" y="0"/>
      <point x="509" y="4"/>
      <point x="527" y="4" type="curve" smooth="yes"/>
      <point x="554" y="4"/>
      <point x="638" y="0"/>
      <point x="675" y="-4" type="curve"/>
      <point x="675" y="12" type="line"/>
      <point x="620" y="14"/>
      <point x="596" y="44"/>
      <point x="562" y="125" type="curve" smooth="yes"/>
      <point x="473" y="338"/>
      <point x="400.236924745" y="519.402537599"/>
      <point x="331" y="694" type="curve"/>
      <point x="319" y="694" type="line"/>
      <point x="294" y="522" type="line"/>
      <point x="347.290460315" y="397.320432471"/>
      <point x="392.882229293" y="301.33408425"/>
    </contour>
    <contour>
      <point x="186" y="176" type="line"/>
      <point x="219" y="177"/>
      <point x="269" y="179"/>
      <point x="319" y="179" type="curve" smooth="yes"/>
      <point x="358" y="179"/>
      <point x="417" y="177"/>
      <point x="449" y="176" type="curve"/>
      <point x="449" y="237" type="line"/>
      <point x="416" y="235"/>
      <point x="378" y="233"/>
      <point x="318" y="233" type="curve" smooth="yes"/>
      <point x="277" y="233"/>
      <point x="219" y="235"/>
      <point x="186" y="236" type="curve"/>
    </contour>
  </outline>
</glyph>
<glyph name="G" format="1">
  <advance width="766"/>
  <unicode hex="0047"/>
  <outline>
    <contour>
      <point x="621" y="171" type="curve" smooth="yes"/>
      <point x="621" y="275"/>
      <point x="630" y="295"/>
      <point x="702" y="302" type="curve"/>
      <point x="702" y="317" type="line"/>
      <point x="648" y="311"/>
      <point x="612" y="309"/>
      <point x="573" y="309" type="curve" smooth="yes"/>
      <point x="522" y="309"/>
      <point x="467" y="313"/>
      <point x="431" y="317" type="curve"/>
      <point x="431" y="302" type="line"/>
      <point x="512" y="297"/>
      <point x="525" y="280"/>
      <point x="525" y="182" type="curve" smooth="yes"/>
      <point x="525" y="142" type="line"/>
      <point x="546" y="142" type="line"/>
      <point x="546" y="14"/>
      <point x="635" y="-7"/>
      <point x="693" y="-4" type="curve"/>
      <point x="693" y="11" type="line"/>
      <point x="642" y="12"/>
      <point x="621" y="71"/>
    </contour>
    <contour>
      <point x="580" y="84" type="curve"/>
      <point x="581" y="200" type="line"/>
      <point x="525" y="204" type="line"/>
      <point x="527" y="101"/>
      <point x="476" y="40"/>
      <point x="391" y="40" type="curve" smooth="yes"/>
      <point x="271" y="40"/>
      <point x="188" y="192"/>
      <point x="188" y="348" type="curve" smooth="yes"/>
      <point x="188" y="548"/>
      <point x="292" y="629"/>
      <point x="416" y="629" type="curve" smooth="yes"/>
      <point x="493" y="629"/>
      <point x="546" y="596"/>
      <point x="574" y="568" type="curve" smooth="yes"/>
      <point x="597" y="545"/>
      <point x="607" y="505"/>
      <point x="605" y="444" type="curve"/>
      <point x="622" y="446" type="line"/>
      <point x="611" y="574"/>
      <point x="614" y="633"/>
      <point x="621" y="664" type="curve"/>
      <point x="614" y="665" type="line"/>
      <point x="610" y="661"/>
      <point x="599" y="661"/>
      <point x="592" y="661" type="curve" smooth="yes"/>
      <point x="566" y="661"/>
      <point x="492" y="684"/>
      <point x="423" y="684" type="curve" smooth="yes"/>
      <point x="206" y="684"/>
      <point x="71" y="542"/>
      <point x="71" y="338" type="curve" smooth="yes"/>
      <point x="71" y="130"/>
      <point x="192" y="-14"/>
      <point x="389" y="-14" type="curve" smooth="yes"/>
      <point x="481" y="-14"/>
      <point x="554" y="26"/>
    </contour>
  </outline>
</glyph>
<glyph name="H" format="1">
  <advance width="760"/>
  <unicode hex="0048"/>
  <outline>
    <contour>
      <point x="237" y="339" type="line"/>
      <point x="275" y="340"/>
      <point x="317" y="342"/>
      <point x="377" y="342" type="curve" smooth="yes"/>
      <point x="444" y="342"/>
      <point x="498" y="340"/>
      <point x="534" y="339" type="curve"/>
      <point x="534" y="401" type="line"/>
      <point x="497" y="399"/>
      <point x="454" y="397"/>
      <point x="390" y="397" type="curve" smooth="yes"/>
      <point x="340" y="397"/>
      <point x="275" y="399"/>
      <point x="237" y="400" type="curve"/>
    </contour>
    <component base="I"/>
    <component base="I" xOffset="380"/>
  </outline>
</glyph>
<glyph name="M" format="1">
  <advance width="864"/>
  <unicode hex="004D"/>
  <outline>
    <contour>
      <point x="419" y="90" type="line"/>
      <point x="452" y="246" type="line"/>
      <point x="437" y="275"/>
      <point x="415" y="312"/>
      <point x="394" y="353" type="curve" smooth="yes"/>
      <point x="296" y="546"/>
      <point x="260" y="649"/>
      <point x="261" y="676" type="curve"/>
      <point x="156" y="631" type="line"/>
      <point x="162" y="609" type="line"/>
      <point x="201.090066433" y="530.819867135"/>
      <point x="277" y="380"/>
      <point x="338" y="244" type="curve" smooth="yes"/>
      <point x="407" y="90" type="line"/>
    </contour>
    <contour>
      <point x="419" y="90" type="line"/>
      <point x="458" y="208"/>
      <point x="604.044728512" y="559.07367049"/>
      <point x="621" y="587" type="curve"/>
      <point x="610" y="661" type="line"/>
      <point x="559" y="676" type="line"/>
      <point x="557.000006226" y="589.000270848"/>
      <point x="446" y="338"/>
      <point x="395" y="227" type="curve"/>
    </contour>
    <contour>
      <point x="576" y="614" type="line"/>
      <point x="592.024515853" y="486.805405415"/>
      <point x="607.001851658" y="354.971299304"/>
      <point x="611" y="293" type="curve" smooth="yes"/>
      <point x="627" y="33"/>
      <point x="614.087400288" y="15.8425621777"/>
      <point x="543" y="12" type="curve"/>
      <point x="543" y="-4" type="line"/>
      <point x="579" y="0"/>
      <point x="639" y="4"/>
      <point x="688" y="4" type="curve" smooth="yes"/>
      <point x="730" y="4"/>
      <point x="802" y="0"/>
      <point x="837" y="-4" type="curve"/>
      <point x="837" y="12" type="line"/>
      <point x="743.699505961" y="16.9627922361"/>
      <point x="728.215999406" y="43.2460075671"/>
      <point x="704" y="352" type="curve" smooth="yes"/>
      <point x="700" y="403" type="line" smooth="yes"/>
      <point x="681.787687509" y="635.206984264"/>
      <point x="688.360654331" y="659.217820188"/>
      <point x="793" y="666" type="curve"/>
      <point x="793" y="680" type="line"/>
      <point x="760.89187498" y="675.986484372"/>
      <point x="701" y="668"/>
      <point x="641" y="668" type="curve" smooth="yes"/>
      <point x="600" y="668"/>
      <point x="578" y="672"/>
      <point x="559" y="676" type="curve"/>
      <point x="564" y="645" type="line"/>
    </contour>
    <contour>
      <point x="278" y="-4" type="curve"/>
      <point x="278" y="12" type="line"/>
      <point x="204.201540629" y="17.4263573067"/>
      <point x="190" y="43"/>
      <point x="203" y="290" type="curve" smooth="yes"/>
      <point x="205" y="329" type="line" smooth="yes"/>
      <point x="213.452184213" y="486.774105314"/>
      <point x="214.005104101" y="554.058697159"/>
      <point x="218" y="600" type="curve"/>
      <point x="261" y="676" type="line"/>
      <point x="244" y="672"/>
      <point x="215" y="668"/>
      <point x="178" y="668" type="curve" smooth="yes"/>
      <point x="138.833333333" y="668.0"/>
      <point x="73.7424572882" y="676.027842455"/>
      <point x="37" y="680" type="curve"/>
      <point x="37" y="666" type="line"/>
      <point x="139.022941743" y="654.11383203"/>
      <point x="150.041429446" y="643.994306703"/>
      <point x="140" y="403" type="curve" smooth="yes"/>
      <point x="137" y="331" type="line" smooth="yes"/>
      <point x="124.750765595" y="37.0183742876"/>
      <point x="105.564917009" y="24.7879991035"/>
      <point x="19" y="12" type="curve"/>
      <point x="19" y="-4" type="line"/>
      <point x="42.6688395361" y="-0.0551934106574"/>
      <point x="113.597222222" y="4.0"/>
      <point x="158" y="4" type="curve" smooth="yes"/>
      <point x="216.348623853" y="4.0"/>
      <point x="243.287686679" y="0.207553129836"/>
    </contour>
  </outline>
</glyph>
<glyph name="U" format="1">
  <advance width="736"/>
  <unicode hex="0055"/>
  <outline>
    <contour>
      <point x="615" y="266" type="curve" smooth="yes"/>
      <point x="615" y="409" type="line" smooth="yes"/>
      <point x="615" y="639"/>
      <point x="630" y="662"/>
      <point x="704" y="666" type="curve"/>
      <point x="704" y="680" type="line"/>
      <point x="677" y="676"/>
      <point x="631" y="672"/>
      <point x="587" y="672" type="curve" smooth="yes"/>
      <point x="543" y="672"/>
      <point x="492" y="676"/>
      <point x="455" y="680" type="curve"/>
      <point x="455" y="666" type="line"/>
      <point x="542" y="653"/>
      <point x="545" y="565"/>
      <point x="545" y="267" type="curve" smooth="yes"/>
      <point x="545" y="107"/>
      <point x="485" y="48"/>
      <point x="392" y="48" type="curve" smooth="yes"/>
      <point x="291" y="48"/>
      <point x="231" y="123"/>
      <point x="231" y="268" type="curve" smooth="yes"/>
      <point x="231" y="369" type="line" smooth="yes"/>
      <point x="231" y="631"/>
      <point x="238" y="658"/>
      <point x="320" y="666" type="curve"/>
      <point x="320" y="680" type="line"/>
      <point x="282" y="676"/>
      <point x="224" y="672"/>
      <point x="183" y="672" type="curve" smooth="yes"/>
      <point x="150" y="672"/>
      <point x="76" y="675"/>
      <point x="31" y="680" type="curve"/>
      <point x="31" y="666" type="line"/>
      <point x="121" y="656"/>
      <point x="126" y="622"/>
      <point x="126" y="436" type="curve" smooth="yes"/>
      <point x="126" y="273" type="line" smooth="yes"/>
      <point x="126" y="56"/>
      <point x="213" y="-14"/>
      <point x="378" y="-14" type="curve" smooth="yes"/>
      <point x="509" y="-14"/>
      <point x="615" y="45"/>
    </contour>
  </outline>
</glyph>
<glyph name="V" format="1">
  <advance width="700"/>
  <unicode hex="0056"/>
  <outline>
    <contour>
      <point x="395" y="130" type="line"/>
      <point x="365" y="199"/>
      <point x="318" y="324"/>
      <point x="290" y="404" type="curve" smooth="yes"/>
      <point x="209" y="636"/>
      <point x="212" y="664"/>
      <point x="280" y="666" type="curve"/>
      <point x="280" y="680" type="line"/>
      <point x="244" y="676"/>
      <point x="200" y="672"/>
      <point x="153" y="672" type="curve" smooth="yes"/>
      <point x="83" y="672"/>
      <point x="36" y="676"/>
      <point x="4" y="680" type="curve"/>
      <point x="4" y="666" type="line"/>
      <point x="75" y="660"/>
      <point x="93" y="627"/>
      <point x="198" y="356" type="curve" smooth="yes"/>
      <point x="345" y="-24" type="line"/>
    </contour>
    <contour>
      <point x="357" y="-24" type="line"/>
      <point x="518" y="395" type="line" smooth="yes"/>
      <point x="611" y="637"/>
      <point x="643" y="661"/>
      <point x="700" y="666" type="curve"/>
      <point x="700" y="680" type="line"/>
      <point x="674" y="676"/>
      <point x="628" y="672"/>
      <point x="573" y="672" type="curve" smooth="yes"/>
      <point x="548" y="672"/>
      <point x="489" y="676"/>
      <point x="460" y="680" type="curve"/>
      <point x="460" y="666" type="line"/>
      <point x="511" y="661"/>
      <point x="518" y="645"/>
      <point x="485" y="510" type="curve" smooth="yes"/>
      <point x="451" y="372"/>
      <point x="367" y="194"/>
      <point x="321" y="77" type="curve"/>
      <point x="345" y="-24" type="line"/>
    </contour>
  </outline>
</glyph>
<glyph name="bracketleft" format="1">
  <advance width="500"/>
  <unicode hex="005B"/>
  <outline>
    <contour>
      <point x="146" y="656" type="line"/>
      <point x="148" y="606"/>
      <point x="153" y="559"/>
      <point x="153" y="321" type="curve" smooth="yes"/>
      <point x="153" y="58"/>
      <point x="150" y="24"/>
      <point x="148" y="-12" type="curve"/>
      <point x="202" y="-12" type="line"/>
      <point x="233" y="-12"/>
      <point x="302" y="-16"/>
      <point x="344" y="-20" type="curve"/>
      <point x="345" y="-7" type="line"/>
      <point x="259" y="2"/>
      <point x="253" y="22"/>
      <point x="252" y="236" type="curve" smooth="yes"/>
      <point x="253" y="410" type="line" smooth="yes"/>
      <point x="252" y="622"/>
      <point x="261" y="642"/>
      <point x="354" y="649" type="curve"/>
      <point x="355" y="662" type="line"/>
      <point x="308" y="659"/>
      <point x="276" y="656"/>
      <point x="240" y="656" type="curve"/>
    </contour>
  </outline>
</glyph>
<glyph name="bracketright" format="1">
  <advance width="500"/>
  <unicode hex="005D"/>
  <outline>
    <contour>
      <point x="378" y="4" type="line"/>
      <point x="376" y="53"/>
      <point x="372" y="100"/>
      <point x="372" y="338" type="curve" smooth="yes"/>
      <point x="372" y="600"/>
      <point x="375" y="634"/>
      <point x="376" y="672" type="curve"/>
      <point x="322" y="672" type="line"/>
      <point x="291" y="672"/>
      <point x="223" y="675"/>
      <point x="180" y="680" type="curve"/>
      <point x="180" y="666" type="line"/>
      <point x="266" y="656"/>
      <point x="272" y="637"/>
      <point x="272" y="424" type="curve" smooth="yes"/>
      <point x="272" y="248" type="line" smooth="yes"/>
      <point x="272" y="38"/>
      <point x="264" y="17"/>
      <point x="170" y="10" type="curve"/>
      <point x="170" y="-4" type="line"/>
      <point x="218" y="0"/>
      <point x="249" y="2"/>
      <point x="285" y="2" type="curve"/>
    </contour>
  </outline>
</glyph>
<glyph name="underscore" format="1">
  <advance width="631"/>
  <unicode hex="005F"/>
  <outline>
    <contour>
      <point x="56" y="51" type="line"/>
      <point x="58" y="3"/>
      <point x="50" y="-54"/>
      <point x="18" y="-119" type="curve"/>
      <point x="31" y="-120" type="line"/>
      <point x="51" y="-73"/>
      <point x="90" y="-65"/>
      <point x="242" y="-65" type="curve" smooth="yes"/>
      <point x="443" y="-65" type="line" smooth="yes"/>
      <point x="580" y="-65"/>
      <point x="589" y="-82"/>
      <point x="589" y="-123" type="curve"/>
      <point x="600" y="-123" type="line"/>
      <point x="596" y="-72"/>
      <point x="599" y="-2"/>
      <point x="618" y="51" type="curve"/>
      <point x="608" y="51" type="line"/>
      <point x="588" y="-3"/>
      <point x="553" y="-6"/>
      <point x="399" y="-6" type="curve" smooth="yes"/>
      <point x="206" y="-6" type="line" smooth="yes"/>
      <point x="77" y="-6"/>
      <point x="66" y="1"/>
      <point x="66" y="51" type="curve"/>
    </contour>
  </outline>
</glyph>
<glyph name="braceleft" format="1">
  <advance width="500"/>
  <unicode hex="007B"/>
  <outline>
    <contour>
      <point x="68" y="323" type="curve"/>
      <point x="68" y="308" type="line"/>
      <point x="144" y="308"/>
      <point x="178" y="281"/>
      <point x="178" y="216" type="curve" smooth="yes"/>
      <point x="178" y="181"/>
      <point x="178" y="126"/>
      <point x="178" y="77" type="curve" smooth="yes"/>
      <point x="178" y="-13"/>
      <point x="259" y="-69"/>
      <point x="352" y="-69" type="curve"/>
      <point x="352" y="-51" type="line"/>
      <point x="286" y="-51"/>
      <point x="251" y="-24"/>
      <point x="251" y="49" type="curve" smooth="yes"/>
      <point x="251" y="90"/>
      <point x="251" y="143"/>
      <point x="251" y="198" type="curve" smooth="yes"/>
      <point x="251" y="309"/>
      <point x="150" y="323"/>
    </contour>
    <contour>
      <point x="352" y="700" type="line"/>
      <point x="270" y="700"/>
      <point x="169" y="686"/>
      <point x="169" y="575" type="curve" smooth="yes"/>
      <point x="169" y="520"/>
      <point x="169" y="467"/>
      <point x="169" y="426" type="curve" smooth="yes"/>
      <point x="169" y="353"/>
      <point x="134" y="326"/>
      <point x="68" y="326" type="curve"/>
      <point x="68" y="308" type="line"/>
      <point x="161" y="308"/>
      <point x="242" y="364"/>
      <point x="242" y="454" type="curve" smooth="yes"/>
      <point x="242" y="503"/>
      <point x="242" y="558"/>
      <point x="242" y="593" type="curve" smooth="yes"/>
      <point x="242" y="658"/>
      <point x="276" y="685"/>
      <point x="352" y="685" type="curve"/>
    </contour>
  </outline>
</glyph>
<glyph name="divide" format="1">
  <advance width="534"/>
  <unicode hex="00F7"/>
  <outline>
    <contour>
      <point x="276" y="450" type="curve" smooth="yes"/>
      <point x="302" y="450"/>
      <point x="325" y="472"/>
      <point x="325" y="499" type="curve" smooth="yes"/>
      <point x="325" y="526"/>
      <point x="302" y="548"/>
      <point x="276" y="548" type="curve" smooth="yes"/>
      <point x="249" y="548"/>
      <point x="226" y="526"/>
      <point x="226" y="499" type="curve" smooth="yes"/>
      <point x="226" y="472"/>
      <point x="249" y="450"/>
    </contour>
    <contour>
      <point x="276" y="106" type="curve" smooth="yes"/>
      <point x="302" y="106"/>
      <point x="325" y="128"/>
      <point x="325" y="155" type="curve" smooth="yes"/>
      <point x="325" y="182"/>
      <point x="302" y="204"/>
      <point x="276" y="204" type="curve" smooth="yes"/>
      <point x="249" y="204"/>
      <point x="226" y="182"/>
      <point x="226" y="155" type="curve" smooth="yes"/>
      <point x="226" y="128"/>
      <point x="249" y="106"/>
    </contour>
    <component base="hyphen"/>
  </outline>
</glyph>
<glyph name="bullet" format="1">
  <advance width="467"/>
  <unicode hex="2022"/>
  <outline>
    <contour>
      <point x="332" y="198" type="line"/>
      <point x="226" y="306" type="line"/>
      <point x="109" y="209" type="line"/>
      <point x="151" y="351" type="line"/>
      <point x="6" y="398" type="line"/>
      <point x="156" y="434" type="line"/>
      <point x="126" y="579" type="line"/>
      <point x="234" y="473" type="line"/>
      <point x="350" y="570" type="line"/>
      <point x="307" y="427" type="line"/>
      <point x="453" y="379" type="line"/>
      <point x="304" y="343" type="line"/>
    </contour>
  </outline>
</glyph>
<glyph name="A.001" format="1">
  <advance width="672"/>
  <outline>
    <contour>
      <point x="417.0" y="162.0" type="curve" smooth="yes"/>
      <point x="458.0" y="28.0"/>
      <point x="445.0" y="13.0"/>
      <point x="390.0" y="12.0" type="curve"/>
      <point x="390.0" y="-2.0" type="line"/>
      <point x="421.0" y="0.0"/>
      <point x="499.0" y="2.0"/>
      <point x="519.0" y="2.0" type="curve" smooth="yes"/>
      <point x="545.0" y="2.0"/>
      <point x="627.0" y="0.0"/>
      <point x="663.0" y="-2.0" type="curve"/>
      <point x="663.0" y="13.0" type="line"/>
      <point x="587.0" y="17.0"/>
      <point x="578.0" y="32.0"/>
      <point x="491.0" y="248.0" type="curve" smooth="yes"/>
      <point x="453.0" y="342.0"/>
      <point x="347" y="597"/>
      <point x="330" y="678" type="curve"/>
      <point x="306" y="674"/>
      <point x="275" y="674"/>
      <point x="241" y="674" type="curve" smooth="yes"/>
      <point x="204" y="674"/>
      <point x="164" y="676"/>
      <point x="130" y="678" type="curve"/>
      <point x="130" y="659" type="line"/>
      <point x="186" y="665"/>
      <point x="228" y="646"/>
      <point x="270" y="532" type="curve" smooth="yes"/>
      <point x="272" y="527"/>
      <point x="278.0" y="513.0"/>
      <point x="280.0" y="508.0" type="curve" smooth="yes"/>
      <point x="328.0" y="391.0"/>
      <point x="388.0" y="256.0"/>
    </contour>
    <contour>
      <point x="174" y="150" type="line"/>
      <point x="207" y="151"/>
      <point x="257" y="153"/>
      <point x="307" y="153" type="curve" smooth="yes"/>
      <point x="346" y="153"/>
      <point x="405" y="151"/>
      <point x="437" y="150" type="curve"/>
      <point x="437" y="200" type="line"/>
      <point x="404" y="198"/>
      <point x="366" y="196"/>
      <point x="306" y="196" type="curve" smooth="yes"/>
      <point x="265" y="196"/>
      <point x="207" y="198"/>
      <point x="174" y="199" type="curve"/>
    </contour>
    <contour>
      <point x="291" y="610" type="line"/>
      <point x="205.0" y="334.0" type="line" smooth="yes"/>
      <point x="118.0" y="56.0"/>
      <point x="85.0" y="20.0"/>
      <point x="7.0" y="12.0" type="curve"/>
      <point x="7.0" y="-2.0" type="line"/>
      <point x="34.0" y="0.0"/>
      <point x="79.0" y="2.0"/>
      <point x="118.0" y="2.0" type="curve" smooth="yes"/>
      <point x="144.0" y="2.0"/>
      <point x="211.0" y="-1.0"/>
      <point x="240.0" y="-2.0" type="curve"/>
      <point x="240.0" y="12.0" type="line"/>
      <point x="180.0" y="14.0"/>
      <point x="177.0" y="28.0"/>
      <point x="224.0" y="205.0" type="curve" smooth="yes"/>
      <point x="242.0" y="273.0"/>
      <point x="317.0" y="482.0"/>
      <point x="344.0" y="569.0" type="curve"/>
      <point x="337" y="612" type="line"/>
    </contour>
  </outline>
</glyph>
<glyph name="G.001" format="1">
  <advance width="795"/>
  <outline>
    <contour>
      <point x="651" y="171" type="curve" smooth="yes"/>
      <point x="651" y="275"/>
      <point x="660" y="295"/>
      <point x="732" y="302" type="curve"/>
      <point x="732" y="317" type="line"/>
      <point x="678" y="311"/>
      <point x="642" y="309"/>
      <point x="603" y="309" type="curve" smooth="yes"/>
      <point x="552" y="309"/>
      <point x="497" y="313"/>
      <point x="461" y="317" type="curve"/>
      <point x="461" y="302" type="line"/>
      <point x="542" y="297"/>
      <point x="555" y="280"/>
      <point x="555" y="182" type="curve" smooth="yes"/>
      <point x="555" y="142" type="line"/>
      <point x="576" y="142" type="line"/>
      <point x="576" y="14"/>
      <point x="665" y="-7"/>
      <point x="723" y="-4" type="curve"/>
      <point x="723" y="11" type="line"/>
      <point x="672" y="12"/>
      <point x="651" y="71"/>
    </contour>
    <contour>
      <point x="614" y="91" type="curve"/>
      <point x="614" y="204" type="line"/>
      <point x="555" y="204" type="line"/>
      <point x="557.000021194" y="74.998632984"/>
      <point x="503" y="40"/>
      <point x="413" y="40" type="curve" smooth="yes"/>
      <point x="275" y="40"/>
      <point x="188" y="192"/>
      <point x="188" y="348" type="curve" smooth="yes"/>
      <point x="188" y="548"/>
      <point x="300" y="629"/>
      <point x="438" y="629" type="curve" smooth="yes"/>
      <point x="518" y="629"/>
      <point x="583" y="593"/>
      <point x="609" y="567" type="curve" smooth="yes"/>
      <point x="632" y="544"/>
      <point x="642" y="504"/>
      <point x="640" y="443" type="curve"/>
      <point x="657" y="445" type="line"/>
      <point x="646" y="573"/>
      <point x="649" y="632"/>
      <point x="656" y="663" type="curve"/>
      <point x="649" y="664" type="line"/>
      <point x="645" y="660"/>
      <point x="634" y="660"/>
      <point x="627" y="660" type="curve" smooth="yes"/>
      <point x="598" y="660"/>
      <point x="517.386363636" y="684.0"/>
      <point x="445" y="684" type="curve" smooth="yes"/>
      <point x="213" y="684"/>
      <point x="71" y="542"/>
      <point x="71" y="338" type="curve" smooth="yes"/>
      <point x="71" y="130"/>
      <point x="199" y="-14"/>
      <point x="408" y="-14" type="curve" smooth="yes"/>
      <point x="505.950980392" y="-14.0"/>
      <point x="587.871573088" y="31.7085696994"/>
    </contour>
  </outline>
</glyph>
<glyph name="H.001" format="1">
  <advance width="803"/>
  <outline>
    <contour>
      <point x="230" y="339" type="line"/>
      <point x="276" y="340"/>
      <point x="327" y="342"/>
      <point x="399" y="342" type="curve" smooth="yes"/>
      <point x="481" y="342"/>
      <point x="546" y="340"/>
      <point x="590" y="339" type="curve"/>
      <point x="590" y="401" type="line"/>
      <point x="545" y="399"/>
      <point x="493" y="397"/>
      <point x="415" y="397" type="curve" smooth="yes"/>
      <point x="354" y="397"/>
      <point x="276" y="399"/>
      <point x="230" y="400" type="curve"/>
    </contour>
    <component base="I" xOffset="423"/>
    <component base="I"/>
  </outline>
</glyph>
<glyph name="J.001" format="1">
  <advance width="337"/>
  <outline>
    <contour>
      <point x="28" y="-187" type="curve" smooth="yes"/>
      <point x="98" y="-187"/>
      <point x="140" y="-142"/>
      <point x="140" y="106" type="curve" smooth="yes"/>
      <point x="140" y="365" type="line"/>
      <point x="240" y="365" type="line"/>
      <point x="240" y="-4" type="line" smooth="yes"/>
      <point x="240" y="-182"/>
      <point x="177" y="-228"/>
      <point x="62" y="-228" type="curve" smooth="yes"/>
      <point x="-5" y="-228"/>
      <point x="-64" y="-192"/>
      <point x="-96" y="-127" type="curve"/>
      <point x="-79" y="-119" type="line"/>
      <point x="-44" y="-171"/>
      <point x="3" y="-187"/>
    </contour>
    <contour>
      <point x="240" y="324" type="line"/>
      <point x="140" y="324" type="line"/>
      <point x="140" y="424" type="line" smooth="yes"/>
      <point x="140" y="637"/>
      <point x="124" y="656"/>
      <point x="34" y="666" type="curve"/>
      <point x="34" y="680" type="line"/>
      <point x="78" y="675"/>
      <point x="158" y="672"/>
      <point x="190" y="672" type="curve" smooth="yes"/>
      <point x="221" y="672"/>
      <point x="282" y="675"/>
      <point x="323" y="680" type="curve"/>
      <point x="323" y="666" type="line"/>
      <point x="239" y="656"/>
      <point x="240" y="627"/>
      <point x="240" y="388" type="curve" smooth="yes"/>
    </contour>
  </outline>
</glyph>
<glyph name="K.001" format="1">
  <advance width="749"/>
  <outline>
    <contour>
      <point x="240" y="338" type="line"/>
      <point x="240" y="424" type="line" smooth="yes"/>
      <point x="240" y="637"/>
      <point x="248" y="656"/>
      <point x="318" y="666" type="curve"/>
      <point x="318" y="680" type="line"/>
      <point x="291" y="675"/>
      <point x="221" y="672"/>
      <point x="190" y="672" type="curve" smooth="yes"/>
      <point x="159" y="672"/>
      <point x="91" y="675"/>
      <point x="48" y="680" type="curve"/>
      <point x="48" y="666" type="line"/>
      <point x="134" y="656"/>
      <point x="140" y="637"/>
      <point x="140" y="424" type="curve" smooth="yes"/>
      <point x="140" y="338" type="line"/>
    </contour>
    <contour>
      <point x="326" y="-4" type="curve"/>
      <point x="326" y="12" type="line"/>
      <point x="250" y="17"/>
      <point x="240" y="38"/>
      <point x="240" y="248" type="curve" smooth="yes"/>
      <point x="240" y="361" type="line"/>
      <point x="140" y="361" type="line"/>
      <point x="140" y="248" type="line" smooth="yes"/>
      <point x="140" y="38"/>
      <point x="132" y="17"/>
      <point x="38" y="10" type="curve"/>
      <point x="38" y="-4" type="line"/>
      <point x="91" y="0"/>
      <point x="151" y="4"/>
      <point x="190" y="4" type="curve" smooth="yes"/>
      <point x="229" y="4"/>
      <point x="291" y="0"/>
    </contour>
    <contour>
      <point x="416" y="680" type="curve"/>
      <point x="416" y="666" type="line"/>
      <point x="475.997710001" y="664.000076333"/>
      <point x="479" y="623"/>
      <point x="370" y="468" type="curve" smooth="yes"/>
      <point x="341" y="427"/>
      <point x="288" y="370"/>
      <point x="259" y="355" type="curve"/>
      <point x="259" y="350" type="line"/>
      <point x="370" y="367" type="line"/>
      <point x="417" y="432"/>
      <point x="444" y="469"/>
      <point x="493" y="527" type="curve" smooth="yes"/>
      <point x="578" y="629"/>
      <point x="599.794541483" y="656.431197896"/>
      <point x="684" y="666" type="curve"/>
      <point x="684" y="680" type="line"/>
      <point x="643" y="676"/>
      <point x="596" y="672"/>
      <point x="543" y="672" type="curve" smooth="yes"/>
      <point x="498" y="672"/>
      <point x="448" y="676"/>
    </contour>
    <contour>
      <point x="259" y="349" type="line"/>
      <point x="317" y="348"/>
      <point x="350" y="330"/>
      <point x="381" y="284" type="curve" smooth="yes"/>
      <point x="406.562541322" y="246.97838843"/>
      <point x="432" y="196"/>
      <point x="452" y="158" type="curve" smooth="yes"/>
      <point x="474" y="116"/>
      <point x="498" y="81"/>
      <point x="522" y="48" type="curve" smooth="yes"/>
      <point x="554" y="6"/>
      <point x="584" y="-14"/>
      <point x="638" y="-14" type="curve" smooth="yes"/>
      <point x="710" y="-14"/>
      <point x="744.784686896" y="15.8434086516"/>
      <point x="767" y="32" type="curve"/>
      <point x="760" y="48" type="line"/>
      <point x="750" y="35"/>
      <point x="732" y="26"/>
      <point x="706" y="26" type="curve" smooth="yes"/>
      <point x="675.405940594" y="26.0"/>
      <point x="644" y="66"/>
      <point x="603" y="131" type="curve" smooth="yes"/>
      <point x="544.23470634" y="224.213914082"/>
      <point x="502.39396282" y="292.594450039"/>
      <point x="468" y="328" type="curve" smooth="yes"/>
      <point x="438.99881353" y="357.967892685"/>
      <point x="393" y="372"/>
      <point x="349" y="378" type="curve"/>
      <point x="259" y="353" type="line"/>
    </contour>
  </outline>
</glyph>
<glyph name="M.001" format="1">
  <advance width="945"/>
  <outline>
    <contour>
      <point x="452" y="10" type="line"/>
      <point x="485" y="166" type="line"/>
      <point x="470" y="195"/>
      <point x="441" y="232"/>
      <point x="420" y="273" type="curve" smooth="yes"/>
      <point x="322" y="466"/>
      <point x="260" y="649"/>
      <point x="261" y="676" type="curve"/>
      <point x="156" y="631" type="line"/>
      <point x="162" y="609" type="line"/>
      <point x="201" y="531"/>
      <point x="310" y="300"/>
      <point x="371" y="164" type="curve" smooth="yes"/>
      <point x="440" y="10" type="line"/>
    </contour>
    <contour>
      <point x="452" y="10" type="line"/>
      <point x="491" y="128"/>
      <point x="679" y="559"/>
      <point x="696" y="587" type="curve"/>
      <point x="685" y="661" type="line"/>
      <point x="634" y="676" type="line"/>
      <point x="632" y="589"/>
      <point x="479" y="258"/>
      <point x="428" y="147" type="curve"/>
    </contour>
    <contour>
      <point x="651" y="614" type="line"/>
      <point x="667" y="487"/>
      <point x="682" y="355"/>
      <point x="686" y="293" type="curve" smooth="yes"/>
      <point x="702" y="33"/>
      <point x="689" y="16"/>
      <point x="618" y="12" type="curve"/>
      <point x="618" y="-4" type="line"/>
      <point x="654" y="0"/>
      <point x="714" y="4"/>
      <point x="763" y="4" type="curve" smooth="yes"/>
      <point x="805" y="4"/>
      <point x="877" y="0"/>
      <point x="912" y="-4" type="curve"/>
      <point x="912" y="12" type="line"/>
      <point x="819" y="17"/>
      <point x="803" y="43"/>
      <point x="779" y="352" type="curve" smooth="yes"/>
      <point x="775" y="403" type="line" smooth="yes"/>
      <point x="757" y="635"/>
      <point x="763" y="659"/>
      <point x="868" y="666" type="curve"/>
      <point x="868" y="680" type="line"/>
      <point x="836" y="676"/>
      <point x="776" y="668"/>
      <point x="716" y="668" type="curve" smooth="yes"/>
      <point x="675" y="668"/>
      <point x="653" y="672"/>
      <point x="634" y="676" type="curve"/>
      <point x="639" y="645" type="line"/>
    </contour>
    <contour>
      <point x="278" y="-4" type="curve"/>
      <point x="278" y="12" type="line"/>
      <point x="204" y="17"/>
      <point x="190" y="43"/>
      <point x="203" y="290" type="curve" smooth="yes"/>
      <point x="205" y="329" type="line" smooth="yes"/>
      <point x="213" y="487"/>
      <point x="214" y="554"/>
      <point x="218" y="600" type="curve"/>
      <point x="261" y="676" type="line"/>
      <point x="244" y="672"/>
      <point x="215" y="668"/>
      <point x="178" y="668" type="curve" smooth="yes"/>
      <point x="139" y="668"/>
      <point x="74" y="676"/>
      <point x="37" y="680" type="curve"/>
      <point x="37" y="666" type="line"/>
      <point x="139" y="654"/>
      <point x="150" y="644"/>
      <point x="140" y="403" type="curve" smooth="yes"/>
      <point x="137" y="331" type="line" smooth="yes"/>
      <point x="125" y="37"/>
      <point x="106" y="25"/>
      <point x="19" y="12" type="curve"/>
      <point x="19" y="-4" type="line"/>
      <point x="43" y="0"/>
      <point x="114" y="4"/>
      <point x="158" y="4" type="curve" smooth="yes"/>
      <point x="216" y="4"/>
      <point x="243" y="0"/>
    </contour>
  </outline>
</glyph>
<glyph name="N.001" format="1">
  <advance width="769"/>
  <outline>
    <contour>
      <point x="649" y="71" type="line"/>
      <point x="649" y="353" type="line" smooth="yes"/>
      <point x="649" y="639"/>
      <point x="656" y="659"/>
      <point x="740" y="666" type="curve"/>
      <point x="740" y="680" type="line"/>
      <point x="713" y="676"/>
      <point x="648" y="672"/>
      <point x="614" y="672" type="curve" smooth="yes"/>
      <point x="583" y="672"/>
      <point x="513" y="676"/>
      <point x="483" y="680" type="curve"/>
      <point x="483" y="666" type="line"/>
      <point x="570" y="654"/>
      <point x="586" y="631"/>
      <point x="586" y="403" type="curve" smooth="yes"/>
      <point x="586" y="330"/>
      <point x="582" y="133"/>
      <point x="579" y="91" type="curve"/>
    </contour>
    <contour>
      <point x="628" y="-24" type="curve"/>
      <point x="649" y="-24" type="line"/>
      <point x="648.000328569" y="14.9871858055"/>
      <point x="649.0" y="99.0"/>
      <point x="649" y="248" type="curve"/>
      <point x="643" y="254"/>
      <point x="610" y="253"/>
      <point x="605" y="247" type="curve"/>
      <point x="605" y="200"/>
      <point x="608" y="183"/>
      <point x="602" y="190" type="curve" smooth="yes"/>
      <point x="525.12633764" y="279.523758698"/>
      <point x="445" y="389"/>
      <point x="385" y="465" type="curve" smooth="yes"/>
      <point x="312" y="557"/>
      <point x="248.13433241" y="640.529836566"/>
      <point x="238" y="676" type="curve"/>
      <point x="221" y="673"/>
      <point x="184" y="672"/>
      <point x="158" y="672" type="curve"/>
      <point x="158" y="606" type="line"/>
      <point x="177" y="580"/>
      <point x="173" y="561"/>
      <point x="196" y="530" type="curve" smooth="yes"/>
      <point x="289.458593807" y="409.54225687"/>
      <point x="432.761732149" y="254.587782134"/>
      <point x="561" y="79" type="curve" smooth="yes"/>
      <point x="573" y="64"/>
      <point x="612" y="4"/>
    </contour>
    <contour>
      <point x="302" y="-4" type="curve"/>
      <point x="302" y="12" type="line"/>
      <point x="208" y="26"/>
      <point x="203" y="56"/>
      <point x="203" y="265" type="curve" smooth="yes"/>
      <point x="203" y="313"/>
      <point x="206" y="486"/>
      <point x="210" y="588" type="curve"/>
      <point x="196" y="672" type="line"/>
      <point x="158" y="672" type="line" smooth="yes"/>
      <point x="116" y="672"/>
      <point x="61" y="677"/>
      <point x="28" y="680" type="curve"/>
      <point x="28" y="666" type="line"/>
      <point x="134" y="654"/>
      <point x="140" y="641"/>
      <point x="140" y="400" type="curve" smooth="yes"/>
      <point x="140" y="230" type="line" smooth="yes"/>
      <point x="140" y="56"/>
      <point x="132" y="17"/>
      <point x="36" y="12" type="curve"/>
      <point x="36" y="-4" type="line"/>
      <point x="72" y="0"/>
      <point x="132" y="4"/>
      <point x="173" y="4" type="curve" smooth="yes"/>
      <point x="214" y="4"/>
      <point x="266" y="0"/>
    </contour>
  </outline>
</glyph>
